<?xml version="1.0" encoding="UTF-8"?>
<svg id="Layer_2" data-name="Layer 2" xmlns="http://www.w3.org/2000/svg" viewBox="0 0 525.51 106.44">
  <defs>
    <style>
      .cls-1 {
        fill: #fdfefe;
      }

      .cls-2 {
        fill: #a93895;
      }
    </style>
  </defs>
  <g id="Layer_1-2" data-name="Layer 1">
    <g>
      <path class="cls-1" d="M181.64,18.33V82.91h-20.25v-25.17h-19.25v25.17h-20.25V18.33h20.25v23.26h19.25V18.33h20.25Z"/>
      <path class="cls-1" d="M201.25,80.35c-4.14-2.13-7.37-5.18-9.71-9.17-2.34-3.98-3.51-8.65-3.51-14s1.17-10.02,3.51-14c2.34-3.98,5.58-7.04,9.71-9.17,4.13-2.13,8.79-3.19,13.96-3.19s9.82,1.06,13.96,3.19c4.13,2.13,7.37,5.18,9.71,9.17,2.34,3.98,3.51,8.65,3.51,14s-1.17,10.02-3.51,14c-2.34,3.98-5.58,7.04-9.71,9.17-4.14,2.13-8.79,3.19-13.96,3.19s-9.82-1.06-13.96-3.19Zm18.7-16.56c1.28-1.49,1.92-3.69,1.92-6.61s-.64-5.12-1.92-6.61c-1.28-1.49-2.86-2.23-4.74-2.23s-3.47,.75-4.74,2.23c-1.28,1.49-1.92,3.69-1.92,6.61s.62,5.12,1.87,6.61c1.25,1.49,2.84,2.23,4.79,2.23s3.47-.74,4.74-2.23Z"/>
      <path class="cls-1" d="M280.79,65.67v17.24h-7.66c-14.11,0-21.16-7.02-21.16-21.07v-13.5h-6.38V31.46h6.38v-12.4h20.25v12.4h8.39v16.87h-8.39v13.86c0,1.22,.29,2.1,.87,2.65,.58,.55,1.53,.82,2.87,.82h4.83Z"/>
      <path class="cls-2" d="M299.53,81.35c-3.19-1.46-5.7-3.5-7.53-6.11-1.82-2.61-2.8-5.53-2.92-8.76h6.75c.3,3.1,1.67,5.82,4.1,8.16,2.43,2.34,5.99,3.51,10.67,3.51,4.32,0,7.74-1.11,10.26-3.33,2.52-2.22,3.79-5.03,3.79-8.44,0-2.74-.7-4.94-2.1-6.61-1.4-1.67-3.13-2.92-5.2-3.74-2.07-.82-4.93-1.72-8.57-2.69-4.26-1.15-7.63-2.28-10.12-3.38-2.49-1.09-4.62-2.8-6.38-5.11-1.76-2.31-2.65-5.44-2.65-9.39,0-3.28,.85-6.22,2.55-8.8,1.7-2.58,4.1-4.61,7.21-6.07,3.1-1.46,6.66-2.19,10.67-2.19,5.9,0,10.66,1.44,14.27,4.33,3.62,2.89,5.7,6.61,6.25,11.17h-6.93c-.43-2.61-1.86-4.94-4.29-6.98-2.43-2.04-5.72-3.06-9.85-3.06-3.83,0-7.02,1.02-9.58,3.06-2.55,2.04-3.83,4.82-3.83,8.35,0,2.68,.7,4.83,2.1,6.48,1.4,1.64,3.15,2.89,5.24,3.74,2.1,.85,4.94,1.76,8.53,2.74,4.13,1.16,7.48,2.3,10.03,3.42,2.55,1.13,4.71,2.84,6.48,5.15,1.76,2.31,2.64,5.41,2.64,9.3,0,2.98-.79,5.81-2.37,8.48-1.58,2.68-3.92,4.83-7.02,6.48s-6.81,2.46-11.13,2.46-7.89-.73-11.08-2.19Z"/>
      <path class="cls-2" d="M357.27,35.7c3.44-2.22,7.53-3.33,12.27-3.33,4.5,0,8.56,1.05,12.18,3.15,3.62,2.1,6.44,5.08,8.48,8.94,2.04,3.86,3.06,8.35,3.06,13.45s-1.02,9.61-3.06,13.5c-2.04,3.89-4.87,6.9-8.48,9.03-3.62,2.13-7.68,3.19-12.18,3.19s-8.76-1.11-12.22-3.33c-3.47-2.22-5.99-5-7.57-8.35v34.48h-6.29V33.1h6.29v10.95c1.58-3.34,4.09-6.13,7.52-8.35Zm27.09,11.49c-1.61-3.01-3.82-5.3-6.61-6.89-2.8-1.58-5.96-2.37-9.49-2.37s-6.52,.82-9.35,2.46c-2.83,1.64-5.06,3.98-6.7,7.02-1.64,3.04-2.46,6.57-2.46,10.58s.82,7.54,2.46,10.58c1.64,3.04,3.88,5.38,6.7,7.02,2.83,1.64,5.94,2.46,9.35,2.46s6.69-.81,9.49-2.42c2.8-1.61,5-3.95,6.61-7.02,1.61-3.07,2.42-6.64,2.42-10.72s-.81-7.71-2.42-10.72Z"/>
      <path class="cls-2" d="M414.18,80.49c-3.74-2.1-6.69-5.08-8.85-8.94-2.16-3.86-3.24-8.38-3.24-13.55s1.09-9.68,3.28-13.54c2.19-3.86,5.17-6.84,8.94-8.94,3.77-2.1,8-3.15,12.68-3.15s8.92,1.05,12.72,3.15c3.8,2.1,6.78,5.08,8.94,8.94,2.16,3.86,3.24,8.38,3.24,13.54s-1.09,9.61-3.28,13.5c-2.19,3.89-5.2,6.89-9.03,8.98s-8.09,3.15-12.77,3.15-8.89-1.05-12.63-3.15Zm21.75-4.65c2.8-1.49,5.06-3.74,6.8-6.75,1.73-3.01,2.6-6.7,2.6-11.08s-.85-8.07-2.55-11.08c-1.7-3.01-3.95-5.26-6.75-6.75-2.8-1.49-5.84-2.23-9.12-2.23s-6.32,.75-9.12,2.23c-2.8,1.49-5.03,3.74-6.7,6.75-1.67,3.01-2.51,6.7-2.51,11.08s.83,8.07,2.51,11.08c1.67,3.01,3.89,5.26,6.66,6.75,2.77,1.49,5.79,2.24,9.08,2.24s6.32-.74,9.12-2.24Z"/>
      <path class="cls-2" d="M471.87,38.48v30.92c0,3.04,.58,5.14,1.73,6.29,1.15,1.16,3.19,1.73,6.11,1.73h5.84v5.47h-6.84c-4.5,0-7.84-1.05-10.03-3.15-2.19-2.1-3.28-5.55-3.28-10.35v-30.92h-6.93v-5.38h6.93v-12.5h6.48v12.5h13.68v5.38h-13.68Z"/>
      <path class="cls-2" d="M499.42,77.62h26.09v5.29h-33.38v-5.29l25.63-39.22h-25.17v-5.29h32.47v5.29l-25.63,39.22Z"/>
    </g>
    <g>
      <path class="cls-1" d="M45.13,25.99L9.95,16.09c-.56-.16-1.16,0-1.57,.4-.42,.4-.58,1-.44,1.56l8.73,34.95c.03,.1,.07,.2,.12,.29l-7.81,27.76-6.91-1.94c-.86-.24-1.76,.26-2,1.12-.24,.86,.26,1.76,1.12,2l16.94,4.77c.86,.24,1.76-.26,2-1.12,.24-.86-.26-1.76-1.12-2l-6.91-1.94,7.81-27.76c.09-.06,.18-.11,.25-.19l25.67-25.27c.41-.41,.58-1,.43-1.56-.14-.56-.58-1-1.13-1.16Zm-8.79,7.51c-4.3-1.26-6.29-.55-12.1-.67-3.84-.08-7.53-1.69-10.04-3.09l-2.44-9.75,29.8,8.38-5.22,5.14Z"/>
      <path class="cls-1" d="M102.03,80.23c-.24-.86-1.14-1.37-2-1.12l-6.91,1.94-7.81-27.76c.04-.1,.09-.19,.12-.29l8.73-34.95c.14-.56-.03-1.16-.44-1.56-.42-.4-1.01-.56-1.57-.4l-35.19,9.9c-.56,.16-.99,.6-1.13,1.16-.14,.56,.02,1.16,.43,1.56l25.67,25.27c.08,.08,.16,.13,.25,.19l7.81,27.76-6.91,1.94c-.86,.24-1.37,1.14-1.12,2,.24,.86,1.14,1.37,2,1.12l16.94-4.77c.86-.24,1.37-1.14,1.12-2Zm-24.18-47.41c-5.81,.13-7.8-.58-12.1,.67l-5.22-5.14,29.8-8.38-2.44,9.75c-2.51,1.4-6.2,3.01-10.04,3.09Z"/>
      <path class="cls-1" d="M51.05,0c-.9,0-1.62,.73-1.62,1.62V15.52c0,.9,.73,1.62,1.62,1.62s1.62-.73,1.62-1.62V1.62c0-.9-.73-1.62-1.62-1.62Z"/>
      <path class="cls-1" d="M41.9,17.21c.25,.64,.86,1.03,1.51,1.03,.2,0,.4-.04,.6-.11,.83-.33,1.24-1.27,.92-2.11l-5.12-13c-.33-.83-1.27-1.24-2.11-.92-.83,.33-1.24,1.27-.92,2.11l5.12,13Z"/>
      <path class="cls-1" d="M58,18.62c.2,.08,.4,.11,.6,.11,.65,0,1.26-.39,1.51-1.03l5.13-12.99c.33-.83-.08-1.78-.92-2.11-.84-.33-1.78,.08-2.11,.91l-5.13,12.99c-.33,.83,.08,1.78,.92,2.11Z"/>
    </g>
  </g>
</svg>